<svg xmlns="http://www.w3.org/2000/svg" xmlns:v="https://svgstorm.com"
viewBox = "0 0 24 29"
width="24"
height="29">
<g fill="None" fill-opacity="0.0" stroke="#FFBAB6" stroke-opacity="1.00" stroke-width="0.3"><path d="
M 0.00 29.00 
L 24.00 29.00
L 24.00 0.00
L 0.00 0.00
L 0.00 29.00
M 16.00 1.00 
C 29.49 4.62 22.78 31.54 9.00 26.00 C -4.78 20.46 2.53 -2.62 16.00 1.00 Z"/>
</g>
<g fill="None" fill-opacity="0.0" stroke="#FE483E" stroke-opacity="1.00" stroke-width="0.3"><path d="
M 16.00 1.00 
C 2.53 -2.62 -4.78 20.46 9.00 26.00 C 22.78 31.54 29.49 4.62 16.00 1.00
M 15.00 7.00 
C 22.77 9.61 17.96 24.17 10.00 21.00 C 2.04 17.83 6.12 4.02 15.00 7.00 Z"/>
</g>
<g fill="None" fill-opacity="0.0" stroke="#F1E5F1" stroke-opacity="1.00" stroke-width="0.3"><path d="
M 15.00 7.00 
C 6.12 4.02 2.04 17.83 10.00 21.00 C 17.96 24.17 22.77 9.61 15.00 7.00
M 16.00 10.00 
C 14.18 13.05 14.27 14.90 16.00 18.00
C 13.46 15.01 11.56 15.26 9.00 18.00
C 10.82 14.95 10.73 13.10 9.00 10.00
C 11.54 12.99 13.44 12.74 16.00 10.00 Z"/>
</g>
<g fill="None" fill-opacity="0.0" stroke="#FC5F57" stroke-opacity="1.00" stroke-width="0.3"><path d="
M 16.00 10.00 
C 13.44 12.74 11.54 12.99 9.00 10.00
C 10.73 13.10 10.82 14.95 9.00 18.00
C 11.56 15.26 13.46 15.01 16.00 18.00
C 14.27 14.90 14.18 13.05 16.00 10.00 Z"/>
</g>
<g fill="#FFBAB6" fill-opacity="1.00" stroke="None">
<path d="
M 0.00 29.00 
L 24.00 29.00
L 24.00 0.00
L 0.00 0.00
L 0.00 29.00
M 16.00 1.00 
C 29.49 4.62 22.78 31.54 9.00 26.00 C -4.78 20.46 2.53 -2.62 16.00 1.00 Z"/>
</g>
<g fill="#FE483E" fill-opacity="1.00" stroke="None">
<path d="
M 16.00 1.00 
C 2.53 -2.62 -4.78 20.46 9.00 26.00 C 22.78 31.54 29.49 4.62 16.00 1.00
M 15.00 7.00 
C 22.77 9.61 17.96 24.17 10.00 21.00 C 2.04 17.83 6.12 4.02 15.00 7.00 Z"/>
</g>
<g fill="#F1E5F1" fill-opacity="1.00" stroke="None">
<path d="
M 15.00 7.00 
C 6.12 4.02 2.04 17.83 10.00 21.00 C 17.96 24.17 22.77 9.61 15.00 7.00
M 16.00 10.00 
C 14.18 13.05 14.27 14.90 16.00 18.00
C 13.46 15.01 11.56 15.26 9.00 18.00
C 10.82 14.95 10.73 13.10 9.00 10.00
C 11.54 12.99 13.44 12.74 16.00 10.00 Z"/>
</g>
<g fill="#FC5F57" fill-opacity="1.00" stroke="None">
<path d="
M 16.00 10.00 
C 13.44 12.74 11.54 12.99 9.00 10.00
C 10.73 13.10 10.82 14.95 9.00 18.00
C 11.56 15.26 13.46 15.01 16.00 18.00
C 14.27 14.90 14.18 13.05 16.00 10.00 Z"/>
</g>
</svg>